<svg width="32" height="32" viewBox="0 0 32 32" fill="none" xmlns="http://www.w3.org/2000/svg">
<circle cx="16" cy="16" r="15.5" stroke="#71787E" stroke-dasharray="2 2"/>
<circle cx="15.9997" cy="15.9997" r="14.9333" fill="white"/>
<path d="M23.1681 10.5698H9.5148C9.33374 10.5698 9.1601 10.4881 9.03208 10.3426C8.90405 10.1971 8.83213 9.99981 8.83213 9.79407C8.83213 9.58833 8.90405 9.39101 9.03208 9.24553C9.1601 9.10004 9.33374 9.01831 9.5148 9.01831H21.1201C21.3012 9.01831 21.4748 8.93658 21.6028 8.7911C21.7309 8.64561 21.8028 8.4483 21.8028 8.24255C21.8028 8.03681 21.7309 7.83949 21.6028 7.69401C21.4748 7.54853 21.3012 7.4668 21.1201 7.4668H9.5148C8.97163 7.4668 8.45072 7.71199 8.06664 8.14844C7.68257 8.58489 7.4668 9.17684 7.4668 9.79407V22.2062C7.4668 22.8234 7.68257 23.4154 8.06664 23.8518C8.45072 24.2883 8.97163 24.5335 9.5148 24.5335H23.1681C23.5302 24.5335 23.8775 24.37 24.1336 24.079C24.3896 23.7881 24.5335 23.3934 24.5335 22.9819V12.1213C24.5335 11.7099 24.3896 11.3152 24.1336 11.0243C23.8775 10.7333 23.5302 10.5698 23.1681 10.5698ZM20.0961 18.3274C19.8936 18.3274 19.6956 18.2592 19.5272 18.1313C19.3588 18.0034 19.2276 17.8217 19.1501 17.6091C19.0726 17.3964 19.0523 17.1625 19.0918 16.9368C19.1313 16.711 19.2288 16.5037 19.3721 16.341C19.5153 16.1782 19.6977 16.0674 19.8964 16.0225C20.095 15.9776 20.3009 16.0006 20.488 16.0887C20.6751 16.1768 20.835 16.3259 20.9476 16.5173C21.0601 16.7086 21.1201 16.9336 21.1201 17.1638C21.1201 17.4724 21.0122 17.7684 20.8202 17.9866C20.6282 18.2048 20.3677 18.3274 20.0961 18.3274Z" fill="#4F616E"/>
</svg>
