<svg width="18" height="18" viewBox="0 0 18 18" fill="none" xmlns="http://www.w3.org/2000/svg">
<path d="M16.1681 3.56983H2.5148C2.33374 3.56983 2.1601 3.4881 2.03208 3.34261C1.90405 3.19713 1.83213 2.99981 1.83213 2.79407C1.83213 2.58833 1.90405 2.39101 2.03208 2.24553C2.1601 2.10004 2.33374 2.01831 2.5148 2.01831H14.1201C14.3012 2.01831 14.4748 1.93658 14.6028 1.7911C14.7309 1.64561 14.8028 1.4483 14.8028 1.24255C14.8028 1.03681 14.7309 0.839494 14.6028 0.694011C14.4748 0.548528 14.3012 0.466797 14.1201 0.466797H2.5148C1.97163 0.466797 1.45072 0.711991 1.06664 1.14844C0.682568 1.58489 0.466797 2.17684 0.466797 2.79407V15.2062C0.466797 15.8234 0.682568 16.4154 1.06664 16.8518C1.45072 17.2883 1.97163 17.5335 2.5148 17.5335H16.1681C16.5302 17.5335 16.8775 17.37 17.1336 17.079C17.3896 16.7881 17.5335 16.3934 17.5335 15.9819V5.12134C17.5335 4.70986 17.3896 4.31522 17.1336 4.02426C16.8775 3.73329 16.5302 3.56983 16.1681 3.56983ZM13.0961 11.3274C12.8936 11.3274 12.6956 11.2592 12.5272 11.1313C12.3588 11.0034 12.2276 10.8217 12.1501 10.6091C12.0726 10.3964 12.0523 10.1625 12.0918 9.93675C12.1313 9.71103 12.2288 9.50369 12.3721 9.34095C12.5153 9.17822 12.6977 9.06739 12.8964 9.02249C13.095 8.97759 13.3009 9.00064 13.488 9.08871C13.6751 9.17678 13.835 9.32593 13.9476 9.51729C14.0601 9.70864 14.1201 9.93362 14.1201 10.1638C14.1201 10.4724 14.0122 10.7684 13.8202 10.9866C13.6282 11.2048 13.3677 11.3274 13.0961 11.3274Z" fill="#4F616E"/>
</svg>
